<svg id="visual" viewBox="0 0 900 600" width="900" height="600" xmlns="http://www.w3.org/2000/svg" xmlns:xlink="http://www.w3.org/1999/xlink" version="1.1"><rect x="0" y="0" width="900" height="600" fill="#001220"></rect><defs><linearGradient id="grad1_0" x1="33.3%" y1="0%" x2="100%" y2="100%"><stop offset="20%" stop-color="#001220" stop-opacity="1"></stop><stop offset="80%" stop-color="#001220" stop-opacity="1"></stop></linearGradient></defs><defs><linearGradient id="grad2_0" x1="0%" y1="0%" x2="66.7%" y2="100%"><stop offset="20%" stop-color="#001220" stop-opacity="1"></stop><stop offset="80%" stop-color="#001220" stop-opacity="1"></stop></linearGradient></defs><g transform="translate(900, 0)"><path d="M0 189.3C-12.2 148.5 -24.4 107.7 -56 97C-87.6 86.3 -138.5 105.8 -163.9 94.6C-189.4 83.5 -189.3 41.8 -189.3 0L0 0Z" fill="#0066FF"></path></g><g transform="translate(0, 600)"><path d="M0 -189.3C15.1 -153.6 30.3 -117.8 61.5 -106.5C92.7 -95.2 140 -108.3 163.9 -94.6C187.9 -81 188.6 -40.5 189.3 0L0 0Z" fill="#0066FF"></path></g></svg>