<svg class="" id="visual" viewBox="0 0 900 600" width="900" height="600" xmlns="http://www.w3.org/2000/svg" xmlns:xlink="http://www.w3.org/1999/xlink" version="1.1"><rect x="0" y="0" width="900" height="600" fill="#002233"></rect><path d="M0 484L21.5 472.2C43 460.3 86 436.7 128.8 423.7C171.7 410.7 214.3 408.3 257.2 420.2C300 432 343 458 385.8 458.5C428.7 459 471.3 434 514.2 424.8C557 415.7 600 422.3 642.8 441.5C685.7 460.7 728.3 492.3 771.2 493.3C814 494.3 857 464.7 878.5 449.8L900 435L900 601L878.5 601C857 601 814 601 771.2 601C728.3 601 685.7 601 642.8 601C600 601 557 601 514.2 601C471.3 601 428.7 601 385.8 601C343 601 300 601 257.2 601C214.3 601 171.7 601 128.8 601C86 601 43 601 21.5 601L0 601Z" fill="#0066FF" stroke-linecap="round" stroke-linejoin="miter"></path></svg>